<svg xmlns="http://www.w3.org/2000/svg" version="1.0" width="20px" height="20px" viewBox="0 0 1024.000000 1024.000000" preserveAspectRatio="xMidYMid meet">

<g transform="translate(0.000000,1024.000000) scale(0.100000,-0.100000)" fill="#000000" stroke="none">
<path d="M0 5120 l0 -5120 5120 0 5120 0 0 5120 0 5120 -5120 0 -5120 0 0 -5120z m6260 1886 c184 -33 419 -135 570 -250 125 -94 274 -254 366 -392 71 -105 79 -123 79 -165 0 -33 -6 -54 -20 -69 -40 -45 -71 -50 -298 -50 l-214 0 -61 79 c-125 161 -283 264 -480 313 -123 31 -321 31 -445 0 -273 -68 -486 -248 -622 -527 -58 -118 -96 -235 -122 -380 -26 -137 -23 -443 6 -599 87 -483 354 -811 746 -917 63 -18 109 -22 220 -23 163 0 221 12 360 78 115 55 195 116 298 227 l82 89 218 0 c237 0 266 -5 305 -55 36 -45 29 -89 -26 -175 -153 -238 -384 -449 -608 -555 -176 -84 -347 -124 -564 -132 -674 -26 -1267 393 -1483 1048 -30 92 -61 224 -81 349 -29 182 -24 569 10 780 61 380 205 673 453 921 248 247 534 381 894 419 108 11 310 4 417 -14z m-1928 -44 l33 -32 1 -1313 c1 -721 -2 -1371 -6 -1442 -22 -356 -143 -642 -374 -882 -128 -134 -271 -233 -425 -293 -73 -28 -231 -67 -307 -76 -71 -7 -96 2 -124 49 -18 29 -20 52 -20 225 l0 194 28 27 c19 19 49 33 102 45 125 30 222 87 326 190 150 150 206 290 233 586 7 74 11 592 11 1438 l0 1323 245 -3 245 -3 32 -33z"/>
</g>
</svg>
